<svg width="274" height="274" viewBox="0 0 274 274" fill="none" xmlns="http://www.w3.org/2000/svg">
<path d="M137.286 55.4935C100.249 62.3817 76.1111 76.5343 60.351 89.817C58.3824 97.6338 57.2264 105.756 57.2264 114.173C57.2264 170.524 104.072 216.203 161.848 216.203C170.466 216.203 178.638 215.051 186.409 213.099C203.096 191.377 216.751 153.562 220.23 122.26C223.881 89.5114 231.137 79.5905 240.168 73.1254C243.372 70.8333 246.737 69.0819 250.297 68.2473C240.145 45.9488 222.382 28.4226 199.434 19.2541C199.491 19.5127 199.594 19.7242 199.651 19.9828C204.012 39.1311 184.132 46.7834 137.286 55.4935ZM264.981 88.0655C264.615 87.325 264.249 86.4904 263.871 85.5501C257.072 68.4471 240.729 79.5317 236.414 89.5936C227.921 109.412 229.169 118.063 225.724 138.152C222.279 158.241 210.421 196.913 193.357 216.767C168.978 245.119 142.311 257.72 104.919 254.052C67.5271 250.385 38.7079 217.825 28.0409 194.221C19.0907 174.415 17.7402 151.952 28.3271 122.836C38.914 93.7195 70.6746 70.0457 99.7113 58.6673C128.748 47.2888 151.73 46.1721 167.925 41.3292C184.12 36.4746 193.666 28.4814 193.07 21.6755C192.326 13.2357 184.406 8.74543 179.931 6.86469C166.426 2.4097 151.993 0 137 0C61.3353 0 0 61.3356 0 137C0 212.664 61.3353 274 137 274C212.665 274 274 212.664 274 137C273.989 119.756 270.795 103.264 264.981 88.0655Z" fill="#2D2D2D"/>
</svg>
