<svg width="33" height="32" viewBox="0 0 33 32" fill="none" xmlns="http://www.w3.org/2000/svg">
<path fill-rule="evenodd" clip-rule="evenodd" d="M4.9429 28.801L2.375 0H30.5921L28.0215 28.7963L16.4665 32L4.9429 28.801Z" fill="#2D2D2D"/>
<path fill-rule="evenodd" clip-rule="evenodd" d="M8.25293 12.9801L8.56226 16.5073L16.5073 12.9801V9.44727L8.25293 12.9801Z" fill="#C2BFB8"/>
<path fill-rule="evenodd" clip-rule="evenodd" d="M25.3067 5.67578L16.5073 9.44693V12.9798L25.0033 9.20292L25.3067 5.67578Z" fill="#C2BFB8"/>
<path fill-rule="evenodd" clip-rule="evenodd" d="M16.5073 22.2087L16.48 22.2128L12.5399 21.1547L12.2824 18.3413H8.73633L9.23119 23.8839L16.4793 25.8907L16.5073 25.8841V22.2087Z" fill="#C2BFB8"/>
<path fill-rule="evenodd" clip-rule="evenodd" d="M16.5073 12.98V16.5071H20.8212L20.4291 21.1186L16.5073 22.2117V25.8868L23.7313 23.8799L24.6826 12.98H16.5073Z" fill="#C2BFB8"/>
<path fill-rule="evenodd" clip-rule="evenodd" d="M16.5073 12.98H8.25293L8.56226 16.5071H16.5073V12.98Z" fill="#C2BFB8"/>
<path fill-rule="evenodd" clip-rule="evenodd" d="M16.5072 9.20292V5.67578H16.4714H7.62573L7.93873 9.20292H16.5072Z" fill="#C2BFB8"/>
<path fill-rule="evenodd" clip-rule="evenodd" d="M16.5073 5.67578V9.15869V9.20292H25.0033L25.3067 5.67578H16.5073Z" fill="#C2BFB8"/>
</svg>
