<svg width="33" height="32" viewBox="0 0 33 32" fill="none" xmlns="http://www.w3.org/2000/svg">
<rect width="32" height="32" transform="translate(0.5)" fill="#2D2D2D"/>
<path fill-rule="evenodd" clip-rule="evenodd" d="M13.5176 13.4725C12.0992 13.4725 10.9494 14.6219 10.9494 16.0398C10.9494 17.4578 12.0992 18.6072 13.5176 18.6072H16.1552V16.0398V13.4725H13.5176ZM19.9729 12.2235L20.0423 12.2235C21.4607 12.2235 22.6105 11.0741 22.6105 9.65617C22.6105 8.23826 21.4607 7.08882 20.0423 7.08882H17.4047V12.2235L19.9729 12.2235ZM22.1358 12.848C23.1743 12.166 23.86 10.9911 23.86 9.65617C23.86 7.54847 22.1507 5.83984 20.0423 5.83984H17.4047H16.78H16.1552H13.5176C11.4092 5.83984 9.69995 7.54847 9.69995 9.65617C9.69995 10.9911 10.3856 12.166 11.4241 12.848C10.3856 13.53 9.69995 14.7049 9.69995 16.0398C9.69995 17.3748 10.3856 18.5496 11.4241 19.2317C10.3856 19.9137 9.69995 21.0886 9.69995 22.4235C9.69995 24.5356 11.4308 26.2398 13.5349 26.2398C15.6581 26.2398 17.4047 24.5201 17.4047 22.3888V19.8562V19.2317V18.8635C18.0828 19.4802 18.9839 19.8562 19.9729 19.8562H20.0423C22.1507 19.8562 23.86 18.1475 23.86 16.0398C23.86 14.7049 23.1743 13.53 22.1358 12.848ZM20.0423 13.4725L19.9729 13.4725C18.5545 13.4725 17.4047 14.6219 17.4047 16.0398C17.4047 17.4578 18.5545 18.6072 19.9729 18.6072H20.0423C21.4607 18.6072 22.6105 17.4578 22.6105 16.0398C22.6105 14.6219 21.4607 13.4725 20.0423 13.4725ZM10.9494 22.4235C10.9494 21.0056 12.0992 19.8562 13.5176 19.8562H16.1552V22.3888C16.1552 23.8215 14.9768 24.9909 13.5349 24.9909C12.1121 24.9909 10.9494 23.8371 10.9494 22.4235ZM16.1552 12.2235H13.5176C12.0992 12.2235 10.9494 11.0741 10.9494 9.65617C10.9494 8.23826 12.0992 7.08882 13.5176 7.08882H16.1552V12.2235Z" fill="#C2BFB8"/>
</svg>
