<svg width="33" height="32" viewBox="0 0 33 32" fill="none" xmlns="http://www.w3.org/2000/svg">
<g clip-path="url(#clip0_1709_68)">
<path fill-rule="evenodd" clip-rule="evenodd" d="M31.8964 14.5742L17.9248 0.603557C17.1207 -0.201186 15.8156 -0.201186 15.0106 0.603557L12.1093 3.50477L15.7897 7.1851C16.645 6.89614 17.6256 7.08995 18.3075 7.7718C18.9925 8.45787 19.1849 9.44695 18.8889 10.3051L22.4358 13.852C23.2939 13.5563 24.284 13.7477 24.9694 14.4341C25.9272 15.3916 25.9272 16.9435 24.9694 17.9017C24.0112 18.8598 22.4593 18.8598 21.5008 17.9017C20.7803 17.1805 20.6023 16.1222 20.9671 15.2346L17.6593 11.9268L17.659 20.6315C17.8925 20.7474 18.113 20.9015 18.3075 21.0953C19.2653 22.0528 19.2653 23.6047 18.3075 24.5636C17.3493 25.5214 15.7967 25.5214 14.8399 24.5636C13.8821 23.6047 13.8821 22.0528 14.8399 21.0953C15.0766 20.859 15.3504 20.6803 15.6425 20.5603V11.7744C15.3504 11.6551 15.0769 11.4774 14.8399 11.2394C14.1142 10.5147 13.9397 9.44975 14.3115 8.55864L10.6838 4.93028L1.10382 14.5096C0.298727 15.315 0.298727 16.6201 1.10382 17.4248L15.0755 31.3958C15.8799 32.2006 17.1846 32.2006 17.9901 31.3958L31.8964 17.4898C32.7012 16.6847 32.7012 15.3789 31.8964 14.5742Z" fill="#2D2D2D"/>
</g>
<defs>
<clipPath id="clip0_1709_68">
<rect width="32" height="32" fill="white" transform="translate(0.5)"/>
</clipPath>
</defs>
</svg>
