<svg width="33" height="32" viewBox="0 0 33 32" fill="none" xmlns="http://www.w3.org/2000/svg">
<path fill-rule="evenodd" clip-rule="evenodd" d="M4.94283 28.8012L2.375 0H30.591L28.0204 28.7967L16.4657 32L4.94283 28.8012Z" fill="#2D2D2D"/>
<path fill-rule="evenodd" clip-rule="evenodd" d="M16.4829 29.5516L25.8197 26.963L28.0164 2.35498H16.4829V29.5516Z" fill="#2D2D2D"/>
<path d="M11.8087 13.0368H16.4829V16.5691H8.57822L7.62549 5.88721H16.4829V9.41959H11.4859L11.8087 13.0368Z" fill="#C2BFB8"/>
<path d="M16.4675 22.2148L16.4829 22.2106V25.8858L16.4667 25.8903L9.23093 23.8816L8.73605 18.3353H12.282L12.5335 21.1525L16.4675 22.2148Z" fill="#C2BFB8"/>
<path d="M16.4707 5.88721H25.3193L25.003 9.41959H16.4707V5.88721Z" fill="#C2BFB8"/>
<path d="M16.4707 16.5691V13.0368H24.6816L24.5954 13.9853L23.7122 23.8816L16.4707 25.8886V22.2136L20.4104 21.1503L20.8204 16.5691H16.4707Z" fill="#C2BFB8"/>
</svg>
