<svg width="33" height="32" viewBox="0 0 33 32" fill="none" xmlns="http://www.w3.org/2000/svg">
<g clip-path="url(#clip0_1709_42)">
<path fill-rule="evenodd" clip-rule="evenodd" d="M0.5 0H32.5V32H0.5V0V0Z" fill="#2D2D2D"/>
<path fill-rule="evenodd" clip-rule="evenodd" d="M8.91338 26.7414L11.3622 25.2594C11.8347 26.097 12.2644 26.8057 13.2953 26.8057C14.2834 26.8057 14.9064 26.4192 14.9064 24.9157V14.6909H17.9136V24.9582C17.9136 28.0729 16.0879 29.4906 13.4242 29.4906C11.0186 29.4906 9.62215 28.2446 8.91333 26.7411" fill="#C2BFB8"/>
<path fill-rule="evenodd" clip-rule="evenodd" d="M19.5481 26.4192L21.9967 25.0015C22.6412 26.0541 23.479 26.8274 24.961 26.8274C26.207 26.8274 27.0016 26.2044 27.0016 25.3452C27.0016 24.3141 26.1854 23.9489 24.8106 23.3476L24.059 23.0252C21.8894 22.1017 20.4501 20.9418 20.4501 18.493C20.4501 16.2375 22.1685 14.519 24.8537 14.519C26.7655 14.519 28.1402 15.185 29.1282 16.9249L26.7868 18.4285C26.2712 17.5049 25.7129 17.1398 24.8537 17.1398C23.973 17.1398 23.4145 17.6983 23.4145 18.4285C23.4145 19.3307 23.973 19.6959 25.2617 20.2545L26.0135 20.5766C28.5697 21.6722 30.0089 22.7891 30.0089 25.3022C30.0089 28.0089 27.8824 29.4909 25.0255 29.4909C22.2331 29.4909 20.4287 28.1592 19.5481 26.4192" fill="#C2BFB8"/>
</g>
<defs>
<clipPath id="clip0_1709_42">
<rect width="32" height="32" fill="white" transform="translate(0.5)"/>
</clipPath>
</defs>
</svg>
