<svg width="234" height="248" viewBox="0 0 234 248" fill="none" xmlns="http://www.w3.org/2000/svg">
<g clip-path="url(#clip0_1870_310)">
<path d="M37.6599 0C93.3799 0.13 149.11 -2.44007e-06 204.83 0.0599976C210.99 0.329998 216.22 5.93 216.35 12.06C216.35 20.95 216.35 29.84 216.35 38.72C216.35 83.8733 216.35 129.03 216.35 174.19C156.81 174.27 97.2732 174.27 37.7399 174.19C37.6099 116.19 37.7399 58.12 37.6499 0.0800171L37.6599 0ZM77.2499 39C77.2499 71.1867 77.2499 103.377 77.2499 135.57C84.1299 135.62 91.0099 135.57 97.8899 135.57C97.9899 114.11 97.8899 92.64 97.9599 71.18C99.4199 75.76 100.45 80.48 101.76 85.11C106.193 101.937 110.633 118.757 115.08 135.57C122.64 135.57 130.2 135.57 137.76 135.57C143.19 114.97 148.42 94.32 153.87 73.73C153.87 73.98 153.97 74.48 154 74.73C154 95.0033 154 115.277 154 135.55C161.62 135.55 169.24 135.55 176.86 135.55C176.86 103.36 176.86 71.18 176.86 38.99H147.54C142.76 57.03 137.993 75.0733 133.24 93.12C131.13 100.89 129.24 108.72 126.99 116.45C120.563 90.6167 114.09 64.7933 107.57 38.98C97.4599 38.94 87.3599 38.94 77.2499 38.94V39Z" fill="#2D2D2D"/>
<path d="M25.08 7.61014C29.28 5.13014 33.38 2.44012 37.67 0.120117C37.8 58.1201 37.67 116.19 37.76 174.23L20.55 184.63C13.69 188.71 6.91001 192.92 0.0200078 196.94C0.0200078 139.373 0.0200078 81.8068 0.0200078 24.2401C0.0800078 23.5901 -0.219975 22.6301 0.600025 22.3501C8.78003 17.4301 16.9 12.4901 25.08 7.61014Z" fill="#2D2D2D"/>
<path d="M216.38 38.7202C222.107 38.7202 227.83 38.7202 233.55 38.7202C233.55 108.427 233.55 178.13 233.55 247.83C169.077 247.904 104.603 247.904 40.1301 247.83C37.0801 247.73 34.0001 248.05 30.9701 247.62C28.1251 247.11 25.5405 245.641 23.6465 243.458C21.7525 241.275 20.6632 238.509 20.5601 235.62C20.5601 218.62 20.5601 201.62 20.5601 184.55L37.7801 174.22C97.3201 174.22 156.857 174.22 216.39 174.22C216.417 129.04 216.413 83.8735 216.38 38.7202ZM80.5001 227.99C83.5401 227.99 86.5834 227.99 89.6301 227.99C90.3301 225.31 90.9401 222.62 91.7101 219.99C95.3401 219.99 98.97 219.99 102.61 219.99C103.39 222.65 104.12 225.34 104.88 227.99C107.987 227.99 111.097 227.99 114.21 227.99C110.51 215.79 106.827 203.584 103.16 191.37C99.1001 191.37 95.0401 191.37 90.9801 191.37C87.4801 203.6 84.0201 215.8 80.5001 227.99ZM110.78 191.39C114.38 198.277 117.987 205.157 121.6 212.03C121.998 212.609 122.255 213.274 122.35 213.97C122.35 218.65 122.35 223.33 122.35 227.97C125.35 227.97 128.44 227.97 131.49 227.97C131.49 223.29 131.49 218.61 131.49 213.97C131.491 213.479 131.638 212.999 131.91 212.59C135.63 205.54 139.29 198.45 143 191.4C139.91 191.4 136.82 191.4 133.73 191.4C131.49 196.52 129.34 201.68 127.08 206.79C124.85 201.66 122.64 196.52 120.39 191.39C117.19 191.37 113.98 191.39 110.78 191.39ZM139.83 227.94C142.83 227.94 145.91 227.94 148.95 227.94C149.59 225.27 150.34 222.64 150.95 219.94C154.61 219.86 158.27 219.94 161.95 219.94C162.72 222.61 163.48 225.27 164.2 227.94C167.31 227.94 170.41 227.94 173.52 227.94C169.9 215.72 166.14 203.54 162.52 191.32C158.45 191.32 154.39 191.32 150.32 191.32C146.78 203.58 143.36 215.8 139.83 227.94Z" fill="#2D2D2D"/>
<path d="M97.0698 197.46C98.2498 202.73 99.6698 207.94 100.8 213.22C98.3098 213.22 95.7998 213.22 93.3198 213.22C94.5898 207.94 95.7798 202.68 97.0698 197.46Z" fill="#2D2D2D"/>
<path d="M152.63 213.19C153.96 207.98 155.03 202.71 156.41 197.52C157.6 202.76 158.97 207.97 160.15 213.22C157.65 213.17 155.14 213.21 152.63 213.19Z" fill="#2D2D2D"/>
</g>
<defs>
<clipPath id="clip0_1870_310">
<rect width="233.55" height="247.89" fill="white"/>
</clipPath>
</defs>
</svg>
