<svg width="371" height="422" viewBox="0 0 371 422" fill="none" xmlns="http://www.w3.org/2000/svg">
<path fill-rule="evenodd" clip-rule="evenodd" d="M182.5 104C184.394 71.4757 191.168 54.2864 213 25.5001L180 0C133.5 52 97 95.0001 91.5 160.5C68.5 144 50.7731 121.405 39 95.0001L0 110C15 164.5 44.5 234.5 94 266.5C71.7686 279.592 52.7007 281.76 11.5 280L5.5 321C95.4844 338.955 138.855 341.708 188 317.5C188.097 346.372 180.389 363.744 158.5 396L191 421.5C248.704 357.299 272.644 321.858 279.5 261C297 271 316.408 292.424 332 326.5L370.5 311.5C349 242 326.5 189 276 154.5C290 145.5 318.626 139.132 359 142L365.5 100.5C276.065 81.7992 233.777 80.0808 182.5 104ZM185 269C217.033 269 243 243.033 243 211C243 178.967 217.033 153 185 153C152.967 153 127 178.967 127 211C127 243.033 152.967 269 185 269Z" fill="#2D2D2D"/>
</svg>
