<svg width="192" height="190" viewBox="0 0 192 190" fill="none" xmlns="http://www.w3.org/2000/svg">
<path d="M78.8 66.6285C75.84 65.3977 72.64 64.9053 69.36 64.9874C67.28 64.9874 65.44 64.9874 63.92 65.0694C62.32 64.9874 61.2 65.0694 60.64 65.1515V92.7219C61.76 92.804 62.8 92.886 63.76 92.886H68C71.12 92.886 74.24 92.3937 77.2 91.409C79.76 90.6705 82 89.1115 83.76 87.0601C85.44 85.0088 86.24 82.2189 86.24 78.6085C86.32 76.0648 85.68 73.5211 84.4 71.3056C83.04 69.1722 81.12 67.5311 78.8 66.6285ZM158 0H34C15.2 0 0 15.5904 0 34.8733V157.127C0 176.41 15.2 192 34 192H158C176.8 192 192 176.41 192 157.127V34.8733C192 15.5904 176.8 0 158 0ZM98.872 95.5938C95.68 100.189 91.2 103.635 86 105.605C80.56 107.656 74.56 108.394 68 108.394C66.08 108.394 64.8 108.394 64 108.312C63.2 108.23 62.08 108.23 60.56 108.23V134.562C60.64 135.136 60.24 135.637 59.68 135.719H44.16C43.52 135.719 43.2 135.382 43.2 134.644V50.2175C43.2 49.6431 43.44 49.3149 44 49.3149C45.36 49.3149 46.64 49.3149 48.48 49.2329C50.4 49.1508 52.4 49.1508 54.56 49.0688C56.72 48.9867 59.04 48.9867 61.52 48.9047C64 48.8226 66.4 48.8226 68.8 48.8226C75.36 48.8226 80.8 49.6431 85.28 51.3663C89.28 52.7612 92.96 55.0588 96 58.0948C98.56 60.7205 100.56 63.9207 101.84 67.449C103.032 70.8953 103.672 74.4237 103.672 78.1162C103.68 85.1729 102.08 90.9988 98.872 95.5938ZM155.6 127.513C153.36 130.795 150.232 133.331 146.64 134.824C142.72 136.539 137.92 137.434 132.152 137.434C128.48 137.434 124.872 137.114 121.28 136.375C118.48 135.875 115.68 134.98 113.12 133.749C112.56 133.429 112.152 132.855 112.232 132.198V117.921C112.232 117.683 112.32 117.347 112.56 117.182C112.792 117.018 113.04 117.1 113.28 117.264C116.4 119.152 119.68 120.473 123.2 121.285C126.232 122.106 129.432 122.516 132.64 122.516C135.68 122.516 137.84 122.098 139.28 121.359C140.56 120.785 141.44 119.39 141.44 117.913C141.44 116.756 140.8 115.697 139.52 114.631C138.24 113.572 135.608 112.341 131.688 110.766C127.608 109.289 123.856 107.319 120.328 104.866C117.848 103.053 115.776 100.681 114.24 97.8914C112.968 95.2656 112.328 92.3937 112.408 89.5136C112.408 85.9852 113.368 82.621 115.136 79.5849C117.136 76.3027 120.088 73.677 123.528 72.0359C127.28 70.0748 132 69.1722 137.68 69.1722C140.96 69.1722 144.32 69.4183 147.6 69.9107C150 70.2389 152.32 70.8953 154.48 71.7979C154.792 71.88 155.12 72.2082 155.28 72.5364C155.36 72.8647 155.44 73.1929 155.44 73.5211V86.896C155.44 87.2242 155.28 87.5525 155.04 87.7166C154.32 87.8807 153.92 87.8807 153.6 87.7166C151.2 86.4037 148.64 85.5011 145.92 84.9267C142.96 84.2703 140 83.86 136.96 83.86C135.36 83.7779 133.68 84.0241 132.152 84.4344C131.12 84.6805 130.232 85.2549 129.672 86.0755C129.272 86.7319 129.032 87.5525 129.032 88.291C129.032 89.0294 129.352 89.7679 129.84 90.4244C130.56 91.327 131.512 92.0655 132.56 92.6399C134.392 93.6245 136.32 94.5271 138.232 95.3477C142.56 96.8247 146.72 98.876 150.56 101.338C153.2 103.053 155.36 105.358 156.872 108.148C158.152 110.758 158.792 113.646 158.712 116.592C158.8 120.456 157.68 124.305 155.6 127.513Z" fill="#2D2D2D"/>
</svg>
