<svg width="64" height="64" viewBox="0 0 64 64" fill="none" xmlns="http://www.w3.org/2000/svg">
<path fill-rule="evenodd" clip-rule="evenodd" d="M58.7991 19.769L53.8363 26.7081L48.8735 19.769H51.5794C51.3731 14.6132 47.1141 10.4886 41.9086 10.4886C37.5161 10.4886 33.791 13.4365 32.614 17.452C31.1822 16.991 29.7019 16.6998 28.1973 16.5664C28.3671 15.9234 28.5856 15.2804 28.8525 14.6618C29.5684 12.9755 30.5877 11.4591 31.886 10.161C33.1843 8.86299 34.7011 7.83183 36.3877 7.12821C38.135 6.37607 39.9915 6 41.9086 6C43.8258 6 45.6823 6.37607 47.4296 7.11608C49.1162 7.83183 50.6329 8.85086 51.9312 10.1489C53.2296 11.447 54.2488 12.9634 54.9647 14.6496C55.6564 16.2752 56.0325 17.9979 56.0689 19.769H58.7991V19.769Z" fill="#2D2D2D"/>
<path fill-rule="evenodd" clip-rule="evenodd" d="M51.8681 58.4089V55.4246H34.7593C34.8806 55.3639 35.002 55.3154 35.1233 55.2548C36.9798 54.3692 38.6907 53.2167 40.2195 51.8095C40.4258 51.6154 40.62 51.4334 40.802 51.2514C41.0083 51.0452 41.2267 50.8268 41.4329 50.5963C41.6756 50.3295 41.9183 50.0504 42.1367 49.7714H51.8681V46.7871L59.9979 52.598L51.8681 58.4089Z" fill="#2D2D2D"/>
<path fill-rule="evenodd" clip-rule="evenodd" d="M45.5587 36.8506C45.5587 39.4346 45.0491 41.9458 44.0541 44.3114C43.2047 46.3252 42.0156 48.1692 40.5353 49.7826C40.3411 49.9889 40.147 50.1951 39.9528 50.4013C39.7708 50.5833 39.5888 50.7531 39.4068 50.9351C37.975 52.2574 36.3733 53.3371 34.626 54.1742C34.3834 54.2955 34.1286 54.4046 33.8737 54.5138C33.8616 54.5138 33.8616 54.526 33.8495 54.526C32.3934 55.1447 30.8281 55.4479 29.2386 55.4479H4V49.8069H27.4306C34.5168 49.8069 40.329 44.1416 40.4261 37.0569C40.4261 36.9962 40.4261 36.9356 40.4261 36.8749C40.4261 29.1351 34.1407 22.8511 26.3992 22.8511C18.6578 22.8269 12.3724 29.0987 12.3724 36.8506H15.6243L9.81215 44.9786L4 36.8506H7.25189C7.25189 34.2667 7.76152 31.7555 8.7565 29.3899C9.72722 27.1092 11.0984 25.059 12.8578 23.3C14.6172 21.5409 16.6678 20.158 18.949 19.1996C21.3151 18.2048 23.8268 17.6953 26.4114 17.6953C26.9331 17.6953 27.4428 17.7196 27.9524 17.756C29.457 17.8773 30.9252 18.1684 32.357 18.6416C32.8666 18.8114 33.3641 18.9934 33.8616 19.2117C36.1428 20.1822 38.1934 21.5531 39.9528 23.3121C41.7123 25.0711 43.0955 27.1213 44.0541 29.402C45.0491 31.7555 45.5587 34.2667 45.5587 36.8506Z" fill="#2D2D2D"/>
</svg>
