<svg width="512" height="512" viewBox="0 0 512 512" fill="none" xmlns="http://www.w3.org/2000/svg">
<g clip-path="url(#clip0_1893_331)">
<path d="M90.6668 0H421.363C445.41 0 468.471 9.79726 485.474 27.2365C502.478 44.6757 512.03 68.3284 512.03 92.9912V419.009C512.03 443.672 502.478 467.324 485.474 484.763C468.471 502.203 445.41 512 421.363 512H90.6668C66.6205 512 43.559 502.203 26.5557 484.763C9.55236 467.324 0 443.672 0 419.009L0 92.9912C0 68.3284 9.55236 44.6757 26.5557 27.2365C43.559 9.79726 66.6205 0 90.6668 0Z" fill="#2D2D2D"/>
<path d="M110.749 359.043V133.938C110.749 132.299 111.428 131.479 112.807 131.479C116.463 131.479 120.813 131.421 125.855 131.305C130.897 131.188 136.335 131.069 142.17 130.946L160.723 130.598C167.25 130.475 173.717 130.413 180.125 130.413C197.529 130.413 212.182 132.647 224.084 137.115C234.831 140.835 244.631 146.973 252.768 155.078C259.666 162.101 264.998 170.575 268.394 179.916C271.61 189.004 273.24 198.602 273.209 208.27C273.209 227.062 268.973 242.563 260.501 254.77C251.973 267.04 239.986 276.338 226.153 281.412C210.736 287.101 194.449 289.905 178.067 289.692C173.025 289.692 169.475 289.63 167.417 289.508C165.358 289.395 162.261 289.333 158.145 289.333V358.736C158.245 359.471 158.057 360.216 157.623 360.81C157.189 361.403 156.543 361.796 155.827 361.902C155.572 361.943 155.313 361.943 155.058 361.902H113.146C111.548 361.861 110.749 360.929 110.749 359.043ZM158.145 173.748V246.675C161.116 246.914 163.863 247.03 166.387 247.024H177.717C186.031 247.146 194.313 245.958 202.275 243.499C209.08 241.426 215.162 237.393 219.798 231.879C224.261 226.482 226.492 218.967 226.492 209.335C226.665 202.523 224.932 195.802 221.497 189.968C217.872 184.319 212.64 179.95 206.511 177.457C198.528 174.28 190.002 172.785 181.444 173.061C175.949 173.061 171.083 173.119 166.847 173.235C162.611 173.351 159.69 173.526 158.085 173.758L158.145 173.748Z" fill="#C2BFB8"/>
<path d="M400.632 326.991V355.877C400.632 358.459 399.716 359.986 397.885 360.458C393.376 361.903 388.789 363.08 384.147 363.982C378.707 364.976 373.188 365.446 367.662 365.386C352.776 365.386 341.1 361.393 332.635 353.408C324.169 345.422 319.933 332.623 319.926 315.012V227.647H299.645C297.817 227.647 296.897 226.622 296.897 224.48V189.569C296.897 187.694 297.897 186.751 299.995 186.751H320.256C320.482 182.761 320.769 178.123 321.115 172.836C321.465 167.558 321.914 162.271 322.494 156.983C323.073 151.696 323.573 147.413 324.033 144.134C324.252 143.433 324.59 142.777 325.032 142.197C325.477 141.624 326.073 141.193 326.75 140.957L367.662 135.711C368.284 135.522 368.95 135.554 369.551 135.803C370.01 136.039 370.07 136.653 370.07 137.852C369.611 143.256 369.278 150.596 369.071 159.873C368.865 169.15 368.635 178.13 368.382 186.812H400.352C401.731 186.812 402.421 187.755 402.421 189.63V225.218C402.502 225.777 402.368 226.346 402.047 226.805C401.727 227.264 401.244 227.577 400.702 227.677H368.002V303.064C368.002 311.057 369.334 316.754 371.999 320.156C374.663 323.558 379.528 325.266 386.595 325.28C388.653 325.28 390.591 325.228 392.44 325.105C394.288 324.983 396.096 324.808 397.935 324.573C398.242 324.456 398.571 324.411 398.898 324.441C399.225 324.471 399.541 324.576 399.823 324.747C400.13 325.022 400.365 325.371 400.506 325.763C400.648 326.155 400.691 326.577 400.632 326.991Z" fill="#C2BFB8"/>
</g>
<defs>
<clipPath id="clip0_1893_331">
<rect width="512" height="512" fill="white"/>
</clipPath>
</defs>
</svg>
