<svg width="330" height="161" viewBox="0 0 330 161" fill="none" xmlns="http://www.w3.org/2000/svg">
<g filter="url(#filter0_iiiiii_1453_45)">
<rect width="330" height="160" rx="11.893" fill="url(#paint0_linear_1453_45)"/>
</g>
<g filter="url(#filter1_f_1453_45)">
<rect x="12.8906" y="11.6129" width="304.219" height="136.774" rx="46.5811" fill="url(#paint1_linear_1453_45)"/>
</g>
<g filter="url(#filter2_ddif_1453_45)">
<rect x="23.2031" y="21.9355" width="283.594" height="116.129" rx="37.6613" fill="url(#paint2_linear_1453_45)"/>
</g>
<g filter="url(#filter3_f_1453_45)">
<rect x="12.8906" y="14.1935" width="304.219" height="131.613" rx="44.5989" stroke="url(#paint3_linear_1453_45)" stroke-width="0.991087"/>
</g>
<path opacity="0.56" d="M121.516 75.147V67.8996H123.932V75.147H121.516ZM111.853 87.2258V65.4839H121.516V67.8996H114.269V75.147H121.516V77.5627H114.269V87.2258H111.853ZM128.763 87.2258V84.8101H136.011V87.2258H128.763ZM126.348 84.8101V75.147H128.763V84.8101H126.348ZM136.011 84.8101V75.147H138.426V84.8101H136.011ZM128.763 75.147V72.7312H136.011V75.147H128.763ZM150.505 79.9785V75.147H152.921V79.9785H150.505ZM140.842 87.2258V72.7312H143.258V75.147H145.674V77.5627H143.258V87.2258H140.842ZM145.674 75.147V72.7312H150.505V75.147H145.674ZM160.168 87.2258V84.8101H165V87.2258H160.168ZM157.753 84.8101V75.147H155.337V72.7312H157.753V67.8996H160.168V72.7312H162.584V75.147H160.168V84.8101H157.753ZM169.832 87.2258V75.147H167.416V72.7312H169.832V67.8996H172.247V72.7312H174.663V75.147H172.247V87.2258H169.832ZM172.247 67.8996V65.4839H177.079V67.8996H172.247ZM181.91 87.2258V84.8101H189.158V87.2258H181.91ZM179.495 84.8101V75.147H181.91V84.8101H179.495ZM189.158 84.8101V75.147H191.574V84.8101H189.158ZM181.91 75.147V72.7312H189.158V75.147H181.91ZM193.989 87.2258V65.4839H196.405V87.2258H193.989ZM198.821 87.2258V72.7312H201.237V87.2258H198.821ZM198.821 70.3154V65.4839H201.237V70.3154H198.821ZM206.068 87.2258V84.8101H213.316V87.2258H206.068ZM203.652 84.8101V75.147H206.068V84.8101H203.652ZM213.316 84.8101V75.147H215.731V84.8101H213.316ZM206.068 75.147V72.7312H213.316V75.147H206.068Z" fill="white"/>
<defs>
<filter id="filter0_iiiiii_1453_45" x="0" y="-3.96435" width="330" height="173.875" filterUnits="userSpaceOnUse" color-interpolation-filters="sRGB">
<feFlood flood-opacity="0" result="BackgroundImageFix"/>
<feBlend mode="normal" in="SourceGraphic" in2="BackgroundImageFix" result="shape"/>
<feColorMatrix in="SourceAlpha" type="matrix" values="0 0 0 0 0 0 0 0 0 0 0 0 0 0 0 0 0 0 127 0" result="hardAlpha"/>
<feOffset dy="5.94652"/>
<feGaussianBlur stdDeviation="2.87415"/>
<feComposite in2="hardAlpha" operator="arithmetic" k2="-1" k3="1"/>
<feColorMatrix type="matrix" values="0 0 0 0 0.129167 0 0 0 0 0.0927147 0 0 0 0 0.0775 0 0 0 0.23 0"/>
<feBlend mode="normal" in2="shape" result="effect1_innerShadow_1453_45"/>
<feColorMatrix in="SourceAlpha" type="matrix" values="0 0 0 0 0 0 0 0 0 0 0 0 0 0 0 0 0 0 127 0" result="hardAlpha"/>
<feOffset dy="-3.96435"/>
<feGaussianBlur stdDeviation="1.98217"/>
<feComposite in2="hardAlpha" operator="arithmetic" k2="-1" k3="1"/>
<feColorMatrix type="matrix" values="0 0 0 0 0 0 0 0 0 0 0 0 0 0 0 0 0 0 0.59 0"/>
<feBlend mode="normal" in2="effect1_innerShadow_1453_45" result="effect2_innerShadow_1453_45"/>
<feColorMatrix in="SourceAlpha" type="matrix" values="0 0 0 0 0 0 0 0 0 0 0 0 0 0 0 0 0 0 127 0" result="hardAlpha"/>
<feOffset dy="-1.98217"/>
<feGaussianBlur stdDeviation="1.98217"/>
<feComposite in2="hardAlpha" operator="arithmetic" k2="-1" k3="1"/>
<feColorMatrix type="matrix" values="0 0 0 0 0.998847 0 0 0 0 0.998847 0 0 0 0 0.998847 0 0 0 0.1 0"/>
<feBlend mode="normal" in2="effect2_innerShadow_1453_45" result="effect3_innerShadow_1453_45"/>
<feColorMatrix in="SourceAlpha" type="matrix" values="0 0 0 0 0 0 0 0 0 0 0 0 0 0 0 0 0 0 127 0" result="hardAlpha"/>
<feOffset dy="4"/>
<feGaussianBlur stdDeviation="2"/>
<feComposite in2="hardAlpha" operator="arithmetic" k2="-1" k3="1"/>
<feColorMatrix type="matrix" values="0 0 0 0 1 0 0 0 0 0.975625 0 0 0 0 0.9625 0 0 0 1 0"/>
<feBlend mode="normal" in2="effect3_innerShadow_1453_45" result="effect4_innerShadow_1453_45"/>
<feColorMatrix in="SourceAlpha" type="matrix" values="0 0 0 0 0 0 0 0 0 0 0 0 0 0 0 0 0 0 127 0" result="hardAlpha"/>
<feMorphology radius="5.94652" operator="erode" in="SourceAlpha" result="effect5_innerShadow_1453_45"/>
<feOffset dy="9.91087"/>
<feGaussianBlur stdDeviation="7.43316"/>
<feComposite in2="hardAlpha" operator="arithmetic" k2="-1" k3="1"/>
<feColorMatrix type="matrix" values="0 0 0 0 0.925 0 0 0 0 0.574271 0 0 0 0 0.173438 0 0 0 0.28 0"/>
<feBlend mode="normal" in2="effect4_innerShadow_1453_45" result="effect5_innerShadow_1453_45"/>
<feColorMatrix in="SourceAlpha" type="matrix" values="0 0 0 0 0 0 0 0 0 0 0 0 0 0 0 0 0 0 127 0" result="hardAlpha"/>
<feOffset dy="1"/>
<feGaussianBlur stdDeviation="1"/>
<feComposite in2="hardAlpha" operator="arithmetic" k2="-1" k3="1"/>
<feColorMatrix type="matrix" values="0 0 0 0 0 0 0 0 0 0 0 0 0 0 0 0 0 0 0.49 0"/>
<feBlend mode="normal" in2="effect5_innerShadow_1453_45" result="effect6_innerShadow_1453_45"/>
</filter>
<filter id="filter1_f_1453_45" x="7.93519" y="6.65748" width="314.13" height="146.685" filterUnits="userSpaceOnUse" color-interpolation-filters="sRGB">
<feFlood flood-opacity="0" result="BackgroundImageFix"/>
<feBlend mode="normal" in="SourceGraphic" in2="BackgroundImageFix" result="shape"/>
<feGaussianBlur stdDeviation="2.47772" result="effect1_foregroundBlur_1453_45"/>
</filter>
<filter id="filter2_ddif_1453_45" x="9.48334" y="12.9355" width="302.314" height="147.938" filterUnits="userSpaceOnUse" color-interpolation-filters="sRGB">
<feFlood flood-opacity="0" result="BackgroundImageFix"/>
<feColorMatrix in="SourceAlpha" type="matrix" values="0 0 0 0 0 0 0 0 0 0 0 0 0 0 0 0 0 0 127 0" result="hardAlpha"/>
<feMorphology radius="0.991087" operator="erode" in="SourceAlpha" result="effect1_dropShadow_1453_45"/>
<feOffset dx="-9.91087" dy="19"/>
<feGaussianBlur stdDeviation="2.4"/>
<feComposite in2="hardAlpha" operator="out"/>
<feColorMatrix type="matrix" values="0 0 0 0 0 0 0 0 0 0 0 0 0 0 0 0 0 0 0.28 0"/>
<feBlend mode="normal" in2="BackgroundImageFix" result="effect1_dropShadow_1453_45"/>
<feColorMatrix in="SourceAlpha" type="matrix" values="0 0 0 0 0 0 0 0 0 0 0 0 0 0 0 0 0 0 127 0" result="hardAlpha"/>
<feOffset dy="-4"/>
<feGaussianBlur stdDeviation="2.5"/>
<feComposite in2="hardAlpha" operator="out"/>
<feColorMatrix type="matrix" values="0 0 0 0 1 0 0 0 0 0.899167 0 0 0 0 0.8625 0 0 0 0.7 0"/>
<feBlend mode="normal" in2="effect1_dropShadow_1453_45" result="effect2_dropShadow_1453_45"/>
<feBlend mode="normal" in="SourceGraphic" in2="effect2_dropShadow_1453_45" result="shape"/>
<feColorMatrix in="SourceAlpha" type="matrix" values="0 0 0 0 0 0 0 0 0 0 0 0 0 0 0 0 0 0 127 0" result="hardAlpha"/>
<feOffset dy="5.94652"/>
<feGaussianBlur stdDeviation="6.2934"/>
<feComposite in2="hardAlpha" operator="arithmetic" k2="-1" k3="1"/>
<feColorMatrix type="matrix" values="0 0 0 0 0.945833 0 0 0 0 0.506743 0 0 0 0 0.193108 0 0 0 0.42 0"/>
<feBlend mode="normal" in2="shape" result="effect3_innerShadow_1453_45"/>
<feGaussianBlur stdDeviation="0.991087" result="effect4_foregroundBlur_1453_45"/>
</filter>
<filter id="filter3_f_1453_45" x="10.0165" y="11.3194" width="309.967" height="137.361" filterUnits="userSpaceOnUse" color-interpolation-filters="sRGB">
<feFlood flood-opacity="0" result="BackgroundImageFix"/>
<feBlend mode="normal" in="SourceGraphic" in2="BackgroundImageFix" result="shape"/>
<feGaussianBlur stdDeviation="1.1893" result="effect1_foregroundBlur_1453_45"/>
</filter>
<linearGradient id="paint0_linear_1453_45" x1="165" y1="0" x2="165" y2="160" gradientUnits="userSpaceOnUse">
<stop stop-color="#E6360B"/>
<stop offset="1" stop-color="#C63512"/>
</linearGradient>
<linearGradient id="paint1_linear_1453_45" x1="165" y1="11.6129" x2="154.458" y2="154.79" gradientUnits="userSpaceOnUse">
<stop stop-color="#C2887A" stop-opacity="0.78"/>
<stop offset="0.5" stop-color="#DA3B14" stop-opacity="0.76504"/>
<stop offset="1" stop-color="#8C2A11"/>
</linearGradient>
<linearGradient id="paint2_linear_1453_45" x1="165" y1="21.9355" x2="165" y2="138.065" gradientUnits="userSpaceOnUse">
<stop stop-color="#CB340E"/>
</linearGradient>
<linearGradient id="paint3_linear_1453_45" x1="165" y1="14.1935" x2="163.715" y2="43.8982" gradientUnits="userSpaceOnUse">
<stop offset="0.341428" stop-color="#FFCCBA"/>
<stop offset="1" stop-color="#999999" stop-opacity="0"/>
</linearGradient>
</defs>
</svg>
