<svg width="60" height="50" viewBox="0 0 60 50" fill="none" xmlns="http://www.w3.org/2000/svg">
<path fill-rule="evenodd" clip-rule="evenodd" d="M14 0.5C8 0.5 0.5 5 0.5 13V38C0.5 46 8 50 14 50H45.5C53.5 50 59 45 59 37C59 29 55 29 55 25.5C55 22 59.5 22.5 59.5 14C59.5 5.5 52.5 0.5 45.5 0.5H14ZM45.5 5.5H31C35 8 42 16 42 25.5C42 36 35 43 31 45.5H45.5C48 45.5 54.5 44.5 54.5 37C54.5 33 52.6598 31.3221 51.5309 30C50.7095 29.038 50 27.3952 50 25.5C50 23.5714 50.6913 22.0496 51.5309 21C52.6504 19.6006 54.5 18 54.5 14C54.5 8 49 5.5 45.5 5.5ZM14 5.5C29 5.5 37 16 37 25.5C37 36 29 45.5 14 45.5C7.50003 45.5 5 40 5.00003 38V25.5V14C5.00003 10 9.00002 5.5 14 5.5Z" fill="#272727"/>
</svg>
